# xmcd
#
# Track frame offsets:
#	150
#	13672
#	23793
#	37440
#	50788
#	68334
#	83480
#	101551
#	119473
#	133195
#	145792
#	161089
#	172485
#	187557
#
# Disc length: 2654 seconds
#
# Revision: 1
# Processed by: cddbd v1.5.1PL0 Copyright (c) Steve Scherf et al.
# Submitted via: audiograbber 1.83.01
#
DISCID=c10a5c0e
DTITLE=Mirek Hoffmann - Romantika starych kovboju
DYEAR=1900
DGENRE=Country
TTITLE0=Stary lasky
TTITLE1=Bracero
TTITLE2=Tom Dooley
TTITLE3=U dvou borovic
TTITLE4=Zlaty klic
TTITLE5=Lasko me pribejva kil
TTITLE6=Prcek Joe
TTITLE7=Cerna barva smuly
TTITLE8=Dal to tahnu uz par patku
TTITLE9=Tam za divokou rekou
TTITLE10=Bam - Bam - Bam
TTITLE11=Smireni
TTITLE12=Kam te zene proud
TTITLE13=Vsechno ma svuj konec
EXTD=
EXTT0=
EXTT1=
EXTT2=
EXTT3=
EXTT4=
EXTT5=
EXTT6=
EXTT7=
EXTT8=
EXTT9=
EXTT10=
EXTT11=
EXTT12=
EXTT13=
PLAYORDER=
